<svg xmlns="http://www.w3.org/2000/svg" width="1200" height="750" viewBox="0 0 1200 750">
  <defs>
    <linearGradient id="news" x1="0" y1="0" x2="0" y2="1">
      <stop offset="0" stop-color="#f6f0df"/><stop offset="1" stop-color="#eadfc6"/>
    </linearGradient>
    <linearGradient id="fade" x1="0" y1="0" x2="1" y2="0">
      <stop offset="0" stop-color="#2f2c26" stop-opacity="0"/><stop offset="0.5" stop-color="#2f2c26"/><stop offset="1" stop-color="#2f2c26" stop-opacity="0"/>
    </linearGradient>
    <pattern id="engrave" width="6" height="6" patternUnits="userSpaceOnUse" patternTransform="rotate(45)">
      <line x1="0" y1="0" x2="0" y2="6" stroke="#2f2c26" stroke-width="0.7" opacity="0.5"/>
    </pattern>
    <filter id="soft" x="-10%" y="-10%" width="120%" height="120%"><feDropShadow dx="0" dy="6" stdDeviation="12" flood-color="#3a3326" flood-opacity="0.28"/></filter>
  </defs>
  <rect width="1200" height="750" fill="url(#news)"/>
  <g filter="url(#soft)">
    <rect x="60" y="60" width="1080" height="630" fill="#f9f4e6"/>
    <rect x="70" y="70" width="1060" height="610" fill="none" stroke="#2f2c26" stroke-width="2.4"/>
    <rect x="78" y="78" width="1044" height="594" fill="none" stroke="#2f2c26" stroke-width="0.9"/>
  </g>
  <g transform="translate(600,300)">
    <g fill="#2f2c26">
      <path d="M0,-150 C40,-150 44,-110 88,-88 C44,-66 40,-26 0,-26 C-40,-26 -44,-66 -88,-88 C-44,-110 -40,-150 0,-150 Z"/>
      <circle cx="0" cy="-88" r="9"/>
      <path d="M0,-190 L14,-162 L-14,-162 Z"/>
      <path d="M0,62 L14,90 L-14,90 Z"/>
    </g>
    <g fill="none" stroke="#2f2c26" stroke-width="1">
      <circle cx="0" cy="-88" r="30"/><circle cx="0" cy="-88" r="44" stroke-opacity="0.55"/>
    </g>
    <g fill="#2f2c26" opacity="0.85">
      <path d="M-300,-58 h600 v8 h-600 z"/>
      <path d="M-258,-34 h516 v5 h-516 z" opacity="0.6"/>
      <path d="M-300,8 h600 v8 h-600 z"/>
    </g>
    <g font-family="Georgia, 'Times New Roman', serif" text-anchor="middle" fill="#2f2c26">
      <text y="-230" font-size="56" letter-spacing="18">THE STYLE LIBRARY</text>
      <text y="-178" font-size="20" letter-spacing="10" opacity="0.75">A SUNDAY SUPPLEMENT</text>
    </g>
  </g>
  <g font-family="Georgia, 'Times New Roman', serif" fill="#2f2c26" opacity="0.75">
    <text x="108" y="665" font-size="19" letter-spacing="6">VOL. I</text>
    <text x="1044" y="665" font-size="19" letter-spacing="6" text-anchor="end">NO. 132</text>
    <text x="108" y="700" font-size="14" letter-spacing="3">EVERY NOTE DESERVES A GOOD PAGE</text>
    <text x="1092" y="700" font-size="14" letter-spacing="3" text-anchor="end">TWO PENNIES</text>
  </g>
  <g transform="translate(600,660)">
    <g stroke="#2f2c26" stroke-width="1" opacity="0.7">
      <line x1="-560" y1="0" x2="560" y2="0"/>
    </g>
    <path d="M-16,0 L0,-12 L16,0 L0,12 Z" fill="#2f2c26"/>
  </g>
</svg>
